<svg width="1920" height="406" viewBox="0 0 1920 406" fill="none" xmlns="http://www.w3.org/2000/svg">
<rect x="108.384" y="40.1729" width="420.439" height="99.4753" rx="49.7377" fill="white"/>
<rect x="551.037" y="40.6729" width="330.614" height="98.4753" rx="49.2377" fill="#141414" stroke="white"/>
<rect x="0.692238" y="0.185406" width="328.086" height="99.2765" rx="49.6382" transform="matrix(0.872679 -0.488295 0.511797 0.859106 -165.007 177.315)" fill="#141414" stroke="white"/>
<rect x="82.2367" y="201.363" width="202.311" height="196.038" rx="98.0188" fill="#141414" stroke="white"/>
<rect x="665.454" y="203.725" width="330.614" height="98.4753" rx="49.2377" fill="#141414" stroke="white"/>
<rect x="1354.41" y="40.6729" width="330.614" height="98.4753" rx="49.2377" fill="#141414" stroke="white"/>
<rect x="1354.48" y="200.516" width="584.735" height="98.4732" rx="49.2366" fill="#141414" stroke="white"/>
<rect x="903.864" y="40.1729" width="428.335" height="99.4753" rx="49.7377" fill="white"/>
<rect x="1015.32" y="203.225" width="331.614" height="99.4753" rx="49.7377" fill="white"/>
<rect x="314.734" y="201.086" width="331.614" height="99.4753" rx="49.7377" fill="white"/>
<rect width="331.283" height="99.5811" rx="49.7905" transform="matrix(0.984407 0.175904 -0.186898 0.982379 1658.74 81.3018)" fill="white"/>
<path d="M206.644 108.606L190.852 84.5584V108.606H184.18V74.1424H192.052L207.076 96.9904V74.1424H213.796V108.606H206.644ZM244.067 102.27V108.606H220.883V74.1424H243.731V80.4784H228.179V87.7264H242.291V94.0144H228.179V102.27H244.067ZM265.119 108.606H257.823V80.7184H246.975V74.1424H276.015V80.7184H265.119V108.606ZM306.527 108.606L300.095 84.5104L293.663 108.606H286.271L277.439 74.1424H284.543L290.111 97.5184L296.447 74.1424H303.887L310.031 97.6144L315.647 74.1424H322.799L313.919 108.606H306.527ZM341.436 109.326C331.5 109.326 323.82 101.646 323.82 91.3264C323.82 81.0064 331.5 73.4224 341.436 73.4224C351.42 73.4224 359.148 81.0064 359.148 91.3264C359.148 101.646 351.42 109.326 341.436 109.326ZM341.436 102.798C347.772 102.798 351.612 97.6624 351.612 91.3264C351.612 84.9904 347.772 79.9504 341.436 79.9504C335.148 79.9504 331.308 84.9904 331.308 91.3264C331.308 97.6624 335.148 102.798 341.436 102.798ZM371.476 108.606H364.18V74.1424H377.668C386.356 74.1424 391.396 78.1744 391.396 85.3264C391.396 89.9824 388.516 93.6784 383.62 95.3104L392.5 108.606H383.812L376.036 96.4144H371.476V108.606ZM371.476 80.1904V90.4144H377.332C381.748 90.4144 384.1 88.6864 384.1 85.3264C384.1 81.9184 381.748 80.1904 377.332 80.1904H371.476ZM404.335 108.606H397.039V74.1424H404.335V89.3104L416.863 74.1424H425.215L411.535 90.6544L425.599 108.606H416.623L404.335 92.8624V108.606ZM454.753 97.9024C454.753 104.478 449.473 109.086 440.833 109.086C432.145 109.086 426.721 104.43 426.193 97.1344H433.585C433.777 100.926 436.225 103.374 440.689 103.374C444.385 103.374 447.025 101.742 447.025 98.9584C447.025 96.7984 445.345 95.5024 442.417 94.9264L436.753 93.8224C431.521 92.8144 427.489 89.9824 427.489 84.2704C427.489 78.1264 432.913 73.7104 440.353 73.7104C448.081 73.7104 453.745 78.2224 454.225 85.4224H446.833C446.593 81.8224 444.097 79.3744 440.449 79.3744C436.897 79.3744 434.881 81.3904 434.881 83.7904C434.881 86.1424 437.041 87.1504 439.537 87.6304L445.441 88.8304C451.489 90.0304 454.753 92.8144 454.753 97.9024Z" fill="black"/>
<path d="M971.851 97.9024C971.851 104.478 966.571 109.086 957.931 109.086C949.243 109.086 943.819 104.43 943.291 97.1344H950.683C950.875 100.926 953.323 103.374 957.787 103.374C961.483 103.374 964.123 101.742 964.123 98.9584C964.123 96.7984 962.443 95.5024 959.515 94.9264L953.851 93.8224C948.619 92.8144 944.587 89.9824 944.587 84.2704C944.587 78.1264 950.011 73.7104 957.451 73.7104C965.179 73.7104 970.843 78.2224 971.323 85.4224H963.931C963.691 81.8224 961.195 79.3744 957.547 79.3744C953.995 79.3744 951.979 81.3904 951.979 83.7904C951.979 86.1424 954.139 87.1504 956.635 87.6304L962.539 88.8304C968.587 90.0304 971.851 92.8144 971.851 97.9024ZM984.528 108.606H977.232V74.1424H984.528V89.3104L997.056 74.1424H1005.41L991.728 90.6544L1005.79 108.606H996.816L984.528 92.8624V108.606ZM1017.15 108.606H1009.86V74.1424H1017.15V108.606ZM1046.47 108.606H1024.2V74.1424H1031.5V102.03H1046.47V108.606ZM1073.75 108.606H1051.48V74.1424H1058.78V102.03H1073.75V108.606ZM1086.06 108.606H1078.76V74.1424H1101.03V80.4784H1086.06V89.1664H1098.68V95.4544H1086.06V108.606ZM1134.32 74.1424V95.5024C1134.32 103.662 1129.13 109.326 1120.16 109.326C1111.04 109.326 1105.95 103.662 1105.95 95.5024V74.1424H1113.24V95.6464C1113.24 99.9184 1115.31 102.798 1120.16 102.798C1124.96 102.798 1127.02 99.9184 1127.02 95.6464V74.1424H1134.32ZM1163.57 108.606H1141.29V74.1424H1148.59V102.03H1163.57V108.606ZM1191.04 108.606L1175.25 84.5584V108.606H1168.58V74.1424H1176.45L1191.47 96.9904V74.1424H1198.19V108.606H1191.04ZM1228.46 102.27V108.606H1205.28V74.1424H1228.13V80.4784H1212.57V87.7264H1226.69V94.0144H1212.57V102.27H1228.46ZM1260.55 97.9024C1260.55 104.478 1255.27 109.086 1246.63 109.086C1237.95 109.086 1232.52 104.43 1231.99 97.1344H1239.39C1239.58 100.926 1242.03 103.374 1246.49 103.374C1250.19 103.374 1252.83 101.742 1252.83 98.9584C1252.83 96.7984 1251.15 95.5024 1248.22 94.9264L1242.55 93.8224C1237.32 92.8144 1233.29 89.9824 1233.29 84.2704C1233.29 78.1264 1238.71 73.7104 1246.15 73.7104C1253.88 73.7104 1259.55 78.2224 1260.03 85.4224H1252.63C1252.39 81.8224 1249.9 79.3744 1246.25 79.3744C1242.7 79.3744 1240.68 81.3904 1240.68 83.7904C1240.68 86.1424 1242.84 87.1504 1245.34 87.6304L1251.24 88.8304C1257.29 90.0304 1260.55 92.8144 1260.55 97.9024ZM1292.38 97.9024C1292.38 104.478 1287.1 109.086 1278.46 109.086C1269.77 109.086 1264.35 104.43 1263.82 97.1344H1271.21C1271.41 100.926 1273.85 103.374 1278.32 103.374C1282.01 103.374 1284.65 101.742 1284.65 98.9584C1284.65 96.7984 1282.97 95.5024 1280.05 94.9264L1274.38 93.8224C1269.15 92.8144 1265.12 89.9824 1265.12 84.2704C1265.12 78.1264 1270.54 73.7104 1277.98 73.7104C1285.71 73.7104 1291.37 78.2224 1291.85 85.4224H1284.46C1284.22 81.8224 1281.73 79.3744 1278.08 79.3744C1274.53 79.3744 1272.51 81.3904 1272.51 83.7904C1272.51 86.1424 1274.67 87.1504 1277.17 87.6304L1283.07 88.8304C1289.12 90.0304 1292.38 92.8144 1292.38 97.9024Z" fill="black"/>
<path d="M1069.69 271.658L1067.1 264.266H1053.7L1051.06 271.658H1043.72L1056.68 237.194H1064.65L1077.51 271.658H1069.69ZM1060.47 245.162L1055.77 258.458H1065.08L1060.47 245.162ZM1094.43 260.426H1089.01V271.658H1081.71V237.194H1094.43C1102.83 237.194 1108.06 241.178 1108.06 248.666C1108.06 256.154 1102.83 260.426 1094.43 260.426ZM1094.38 243.338H1089.01V254.282H1094.38C1098.51 254.282 1100.82 252.122 1100.82 248.714C1100.82 245.306 1098.51 243.338 1094.38 243.338ZM1125.74 260.426H1120.32V271.658H1113.02V237.194H1125.74C1134.14 237.194 1139.38 241.178 1139.38 248.666C1139.38 256.154 1134.14 260.426 1125.74 260.426ZM1125.7 243.338H1120.32V254.282H1125.7C1129.82 254.282 1132.13 252.122 1132.13 248.714C1132.13 245.306 1129.82 243.338 1125.7 243.338ZM1151.63 271.658H1144.34V237.194H1157.82C1166.51 237.194 1171.55 241.226 1171.55 248.378C1171.55 253.034 1168.67 256.73 1163.78 258.362L1172.66 271.658H1163.97L1156.19 259.466H1151.63V271.658ZM1151.63 243.242V253.466H1157.49C1161.9 253.466 1164.26 251.738 1164.26 248.378C1164.26 244.97 1161.9 243.242 1157.49 243.242H1151.63ZM1192.61 272.378C1182.67 272.378 1174.99 264.698 1174.99 254.378C1174.99 244.058 1182.67 236.474 1192.61 236.474C1202.59 236.474 1210.32 244.058 1210.32 254.378C1210.32 264.698 1202.59 272.378 1192.61 272.378ZM1192.61 265.85C1198.94 265.85 1202.78 260.714 1202.78 254.378C1202.78 248.042 1198.94 243.002 1192.61 243.002C1186.32 243.002 1182.48 248.042 1182.48 254.378C1182.48 260.714 1186.32 265.85 1192.61 265.85ZM1236.38 271.658L1233.78 264.266H1220.39L1217.75 271.658H1210.41L1223.37 237.194H1231.34L1244.2 271.658H1236.38ZM1227.16 245.162L1222.46 258.458H1231.77L1227.16 245.162ZM1261.65 272.378C1251.95 272.378 1244.37 264.506 1244.37 254.378C1244.37 244.298 1251.95 236.474 1261.65 236.474C1270.72 236.474 1277.82 242.522 1279.02 251.354H1271.29C1270.48 246.41 1266.64 243.002 1261.74 243.002C1255.84 243.002 1251.85 247.658 1251.85 254.378C1251.85 261.146 1255.84 265.85 1261.74 265.85C1266.64 265.85 1270.43 262.394 1271.29 257.45H1279.02C1277.82 266.378 1270.72 272.378 1261.65 272.378ZM1291.41 271.658H1284.12V237.194H1291.41V250.778H1306.34V237.194H1313.64V271.658H1306.34V257.066H1291.41V271.658Z" fill="black"/>
<path d="M1711.07 155.791C1701.52 154.085 1695.53 145.017 1697.42 135.068C1699.31 125.166 1708.24 118.814 1717.78 120.52C1726.71 122.117 1732.57 129.308 1732.1 138.195L1724.5 136.836C1724.62 131.835 1721.47 127.812 1716.65 126.95C1710.84 125.911 1706.05 129.784 1704.79 136.386C1703.53 143.034 1706.57 148.356 1712.38 149.395C1717.2 150.257 1721.58 147.529 1723.36 142.824L1730.96 144.184C1728.11 152.743 1720 157.387 1711.07 155.791ZM1748.54 162.49C1738.76 160.742 1732.64 151.846 1734.57 141.708C1736.5 131.57 1745.48 125.471 1755.26 127.219C1765.09 128.976 1771.27 137.786 1769.35 147.924C1767.42 158.062 1758.37 164.247 1748.54 162.49ZM1749.77 156.077C1756 157.192 1760.74 152.822 1761.93 146.598C1763.11 140.374 1760.27 134.747 1754.04 133.632C1747.85 132.525 1743.12 136.801 1741.94 143.025C1740.76 149.249 1743.58 154.971 1749.77 156.077ZM1792.99 169.703L1771.07 165.785L1777.51 131.928L1784.69 133.212L1779.48 160.608L1794.22 163.243L1792.99 169.703ZM1819.85 174.504L1797.92 170.585L1804.37 136.728L1811.55 138.012L1806.34 165.409L1821.08 168.044L1819.85 174.504ZM1847.46 179.439L1846.29 171.721L1833.11 169.365L1829.13 176.162L1821.9 174.87L1841.1 143.294L1848.94 144.696L1855.16 180.816L1847.46 179.439ZM1843.34 151.789L1836.22 164.023L1845.39 165.661L1843.34 151.789ZM1886.56 176.141C1885.37 182.412 1880.04 185.262 1872.57 183.928L1859.29 181.555L1865.74 147.698L1878.5 149.979C1885.63 151.254 1889.41 155.246 1888.31 161.046C1887.72 164.158 1885.49 166.345 1882.17 167.36C1885.7 169.356 1887.27 172.416 1886.56 176.141ZM1876.85 155.536L1871.18 154.522L1869.68 162.397L1875.35 163.41C1878.85 164.035 1880.93 162.847 1881.4 160.395C1881.86 157.991 1880.35 156.161 1876.85 155.536ZM1874.79 169.209L1868.6 168.103L1866.89 177.062L1873.08 178.168C1876.96 178.861 1879.31 177.526 1879.86 174.65C1880.37 171.962 1878.66 169.902 1874.79 169.209ZM1905.48 190.541C1895.7 188.793 1889.57 179.897 1891.5 169.759C1893.43 159.621 1902.41 153.522 1912.19 155.27C1922.02 157.027 1928.21 165.837 1926.28 175.975C1924.35 186.113 1915.31 192.298 1905.48 190.541ZM1906.7 184.128C1912.94 185.243 1917.68 180.873 1918.86 174.649C1920.05 168.425 1917.21 162.798 1910.97 161.683C1904.78 160.577 1900.06 164.852 1898.87 171.077C1897.69 177.301 1900.51 183.022 1906.7 184.128ZM1935.18 195.12L1928 193.836L1934.45 159.98L1947.72 162.353C1956.28 163.882 1960.48 168.729 1959.15 175.755C1958.28 180.329 1954.75 183.453 1949.63 184.195L1955.88 198.819L1947.33 197.29L1941.95 183.945L1937.46 183.143L1935.18 195.12ZM1940.5 167.205L1938.59 177.248L1944.35 178.279C1948.7 179.056 1951.34 177.772 1951.96 174.471C1952.6 171.123 1950.61 169.012 1946.26 168.235L1940.5 167.205ZM1982.8 203.631L1981.63 195.913L1968.45 193.556L1964.47 200.354L1957.24 199.061L1976.44 167.485L1984.28 168.887L1990.5 205.007L1982.8 203.631ZM1978.68 175.98L1971.56 188.214L1980.73 189.852L1978.68 175.98ZM2006.89 207.937L1999.71 206.654L2004.93 179.257L1994.25 177.349L1995.48 170.889L2024.06 175.998L2022.83 182.458L2012.11 180.541L2006.89 207.937ZM2029.09 211.904L2021.91 210.621L2028.35 176.764L2035.53 178.048L2029.09 211.904ZM2051.25 216.597C2041.47 214.848 2035.34 205.952 2037.27 195.814C2039.2 185.676 2048.18 179.577 2057.96 181.326C2067.79 183.082 2073.98 191.892 2072.05 202.031C2070.12 212.169 2061.08 218.353 2051.25 216.597ZM2052.47 210.184C2058.7 211.299 2063.44 206.929 2064.63 200.705C2065.81 194.48 2062.98 188.853 2056.74 187.739C2050.55 186.632 2045.83 190.908 2044.64 197.132C2043.46 203.356 2046.28 209.077 2052.47 210.184ZM2095.88 223.844L2084.83 197.441L2080.34 221.065L2073.77 219.891L2080.21 186.035L2087.96 187.42L2098.48 212.509L2102.75 190.064L2109.37 191.246L2102.92 225.102L2095.88 223.844ZM2137.94 220.488C2136.71 226.948 2130.65 230.546 2122.14 229.025C2113.59 227.497 2109.12 221.968 2109.97 214.708L2117.24 216.009C2116.72 219.768 2118.68 222.603 2123.07 223.389C2126.71 224.039 2129.61 222.9 2130.13 220.165C2130.54 218.043 2129.13 216.475 2126.35 215.394L2120.98 213.313C2116.02 211.402 2112.58 207.91 2113.65 202.299C2114.8 196.263 2120.96 192.879 2128.29 194.189C2135.89 195.548 2140.62 200.977 2139.75 208.135L2132.47 206.834C2132.91 203.256 2130.91 200.411 2127.32 199.77C2123.82 199.145 2121.46 200.77 2121.01 203.128C2120.57 205.439 2122.51 206.809 2124.88 207.72L2130.47 209.937C2136.2 212.18 2138.89 215.49 2137.94 220.488Z" fill="black"/>
<path d="M378.829 269.312H371.533V234.848H393.805V241.184H378.829V249.872H391.453V256.16H378.829V269.312ZM406.11 269.312H398.814V234.848H406.11V269.312ZM435.622 269.312L419.83 245.264V269.312H413.158V234.848H421.03L436.054 257.696V234.848H442.774V269.312H435.622ZM462.101 269.312H449.861V234.848H462.101C473.045 234.848 479.669 241.856 479.669 251.888C479.669 261.92 472.805 269.312 462.101 269.312ZM457.157 241.136V263.024H461.717C468.581 263.024 472.181 259.04 472.181 251.888C472.181 245.024 468.581 241.136 461.717 241.136H457.157ZM492.032 269.312H484.736V234.848H492.032V269.312ZM521.544 269.312L505.752 245.264V269.312H499.08V234.848H506.952L521.976 257.696V234.848H528.696V269.312H521.544ZM551.527 270.033C541.543 270.033 533.767 262.592 533.767 251.936C533.767 241.76 541.159 234.128 551.239 234.128C559.975 234.128 566.215 239.312 568.471 246.8H559.879C558.823 243.296 555.655 240.656 551.047 240.656C545.479 240.656 541.255 244.736 541.255 252.128C541.255 258.752 544.951 263.84 551.863 263.84C556.951 263.84 560.167 260.816 561.127 256.544H551.143V250.736H568.903C569.335 261.968 562.519 270.033 551.527 270.033ZM600.434 258.608C600.434 265.184 595.154 269.793 586.514 269.793C577.826 269.793 572.402 265.136 571.874 257.84H579.266C579.458 261.632 581.906 264.08 586.37 264.08C590.066 264.08 592.706 262.448 592.706 259.664C592.706 257.504 591.026 256.208 588.098 255.632L582.434 254.528C577.202 253.52 573.17 250.688 573.17 244.976C573.17 238.832 578.594 234.416 586.034 234.416C593.762 234.416 599.426 238.928 599.906 246.128H592.514C592.274 242.528 589.778 240.08 586.13 240.08C582.578 240.08 580.562 242.096 580.562 244.496C580.562 246.848 582.722 247.856 585.218 248.336L591.122 249.536C597.17 250.736 600.434 253.52 600.434 258.608Z" fill="black"/>
<path d="M648.622 73.4471L636.142 107.911H628.174L615.79 73.4471H623.662L632.398 99.4151L641.326 73.4471H648.622ZM659.863 107.911H652.567V73.4471H659.863V107.911ZM693.359 97.2071C693.359 103.783 688.079 108.391 679.439 108.391C670.751 108.391 665.327 103.735 664.799 96.4391H672.191C672.383 100.231 674.831 102.679 679.295 102.679C682.991 102.679 685.631 101.047 685.631 98.2631C685.631 96.1031 683.951 94.8071 681.023 94.2311L675.359 93.1271C670.127 92.1191 666.095 89.2871 666.095 83.5751C666.095 77.4311 671.519 73.0151 678.959 73.0151C686.687 73.0151 692.351 77.5271 692.831 84.7271H685.439C685.199 81.1271 682.703 78.6791 679.055 78.6791C675.503 78.6791 673.487 80.6951 673.487 83.0951C673.487 85.4471 675.647 86.4551 678.143 86.9351L684.047 88.1351C690.095 89.3351 693.359 92.1191 693.359 97.2071ZM727.011 73.4471V94.8071C727.011 102.967 721.827 108.631 712.851 108.631C703.731 108.631 698.643 102.967 698.643 94.8071V73.4471H705.939V94.9511C705.939 99.2231 708.003 102.103 712.851 102.103C717.651 102.103 719.715 99.2231 719.715 94.9511V73.4471H727.011ZM755.623 107.911L753.031 100.519H739.639L736.999 107.911H729.655L742.615 73.4471H750.583L763.447 107.911H755.623ZM746.407 81.4151L741.703 94.7111H751.015L746.407 81.4151ZM789.918 107.911H767.646V73.4471H774.942V101.335H789.918V107.911ZM821.375 97.2071C821.375 103.783 816.095 108.391 807.455 108.391C798.767 108.391 793.343 103.735 792.815 96.4391H800.207C800.399 100.231 802.847 102.679 807.311 102.679C811.007 102.679 813.647 101.047 813.647 98.2631C813.647 96.1031 811.967 94.8071 809.039 94.2311L803.375 93.1271C798.143 92.1191 794.111 89.2871 794.111 83.5751C794.111 77.4311 799.535 73.0151 806.975 73.0151C814.703 73.0151 820.367 77.5271 820.847 84.7271H813.455C813.215 81.1271 810.719 78.6791 807.071 78.6791C803.519 78.6791 801.503 80.6951 801.503 83.0951C801.503 85.4471 803.663 86.4551 806.159 86.9351L812.063 88.1351C818.111 89.3351 821.375 92.1191 821.375 97.2071Z" fill="white"/>
<path d="M728.389 237.194V258.554C728.389 266.714 723.205 272.378 714.229 272.378C705.109 272.378 700.021 266.714 700.021 258.554V237.194H707.317V258.698C707.317 262.97 709.381 265.85 714.229 265.85C719.029 265.85 721.093 262.97 721.093 258.698V237.194H728.389ZM761.815 260.954C761.815 267.53 756.535 272.138 747.895 272.138C739.207 272.138 733.783 267.482 733.255 260.186H740.647C740.839 263.978 743.287 266.426 747.751 266.426C751.447 266.426 754.087 264.794 754.087 262.01C754.087 259.85 752.407 258.554 749.479 257.978L743.815 256.874C738.583 255.866 734.551 253.034 734.551 247.322C734.551 241.178 739.975 236.762 747.415 236.762C755.143 236.762 760.807 241.274 761.287 248.474H753.895C753.655 244.874 751.159 242.426 747.511 242.426C743.959 242.426 741.943 244.442 741.943 246.842C741.943 249.194 744.103 250.202 746.599 250.682L752.503 251.882C758.551 253.082 761.815 255.866 761.815 260.954ZM790.379 265.322V271.658H767.195V237.194H790.043V243.53H774.491V250.778H788.603V257.066H774.491V265.322H790.379ZM803.32 271.658H796.024V237.194H809.512C818.2 237.194 823.24 241.226 823.24 248.378C823.24 253.034 820.36 256.73 815.464 258.362L824.344 271.658H815.656L807.88 259.466H803.32V271.658ZM803.32 243.242V253.466H809.176C813.592 253.466 815.944 251.738 815.944 248.378C815.944 244.97 813.592 243.242 809.176 243.242H803.32ZM846.21 271.658H838.914V237.194H861.186V243.53H846.21V252.218H858.834V258.506H846.21V271.658ZM888.467 271.658H866.195V237.194H873.491V265.082H888.467V271.658ZM906.217 272.378C896.281 272.378 888.601 264.698 888.601 254.378C888.601 244.058 896.281 236.474 906.217 236.474C916.201 236.474 923.929 244.058 923.929 254.378C923.929 264.698 916.201 272.378 906.217 272.378ZM906.217 265.85C912.553 265.85 916.393 260.714 916.393 254.378C916.393 248.042 912.553 243.002 906.217 243.002C899.929 243.002 896.089 248.042 896.089 254.378C896.089 260.714 899.929 265.85 906.217 265.85ZM954.043 271.658L947.611 247.562L941.179 271.658H933.787L924.955 237.194H932.059L937.627 260.57L943.963 237.194H951.403L957.547 260.666L963.163 237.194H970.315L961.435 271.658H954.043Z" fill="white"/>
<path d="M7.44614 159.601L1.07907 163.164L-16.5595 133.556L2.87679 122.68L6.11954 128.124L-6.9497 135.436L-2.50321 142.9L8.51349 136.736L11.7317 142.138L0.714977 148.302L7.44614 159.601ZM31.2539 146.28L24.8868 149.843L7.24825 120.234L13.6153 116.672L31.2539 146.28ZM56.8406 131.963L37.4043 142.839L19.7657 113.23L26.1328 109.668L40.4058 133.626L53.4751 126.314L56.8406 131.963ZM80.6484 118.642L61.2121 129.517L43.5735 99.909L49.9406 96.3464L64.2136 120.305L77.2828 112.992L80.6484 118.642ZM100.141 107.735L93.7739 111.298L76.1353 81.6895L82.5024 78.1269L100.141 107.735ZM125.895 93.3247L99.8062 80.3761L112.114 101.036L106.291 104.294L88.6528 74.6856L95.5226 70.8417L120.327 83.1344L108.634 63.5056L114.498 60.2242L132.137 89.8325L125.895 93.3247ZM133.813 64.6471C135.164 66.9152 134.53 69.4141 132.227 70.7032C129.923 71.9923 127.331 71.2981 125.98 69.0301C124.604 66.7208 125.28 64.1985 127.583 62.9094C129.887 61.6203 132.437 62.3379 133.813 64.6471ZM142.46 79.1626C143.811 81.4306 143.178 83.9295 140.874 85.2186C138.57 86.5077 135.978 85.8136 134.627 83.5455C133.251 81.2362 133.927 78.7139 136.231 77.4248C138.535 76.1357 141.085 76.8533 142.46 79.1626Z" fill="white"/>
<path d="M1416.19 108.606H1408.9V74.1424H1431.17V80.4784H1416.19V89.1664H1428.82V95.4544H1416.19V108.606ZM1443.47 108.606H1436.18V74.1424H1449.66C1458.35 74.1424 1463.39 78.1744 1463.39 85.3264C1463.39 89.9824 1460.51 93.6784 1455.62 95.3104L1464.5 108.606H1455.81L1448.03 96.4144H1443.47V108.606ZM1443.47 80.1904V90.4144H1449.33C1453.74 90.4144 1456.1 88.6864 1456.1 85.3264C1456.1 81.9184 1453.74 80.1904 1449.33 80.1904H1443.47ZM1491.84 108.606L1489.25 101.214H1475.86L1473.22 108.606H1465.87L1478.83 74.1424H1486.8L1499.67 108.606H1491.84ZM1482.63 82.1104L1477.92 95.4064H1487.23L1482.63 82.1104ZM1519.51 108.606L1510.49 85.7104V108.606H1503.86V74.1424H1512.6L1522.58 99.6784L1532.62 74.1424H1541.35V108.606H1534.73V85.5184L1525.61 108.606H1519.51ZM1555.69 108.606H1548.4V74.1424H1555.69V108.606ZM1585.2 108.606L1569.41 84.5584V108.606H1562.74V74.1424H1570.61L1585.64 96.9904V74.1424H1592.36V108.606H1585.2ZM1615.19 109.326C1605.2 109.326 1597.43 101.886 1597.43 91.2304C1597.43 81.0544 1604.82 73.4224 1614.9 73.4224C1623.63 73.4224 1629.87 78.6064 1632.13 86.0944H1623.54C1622.48 82.5904 1619.31 79.9504 1614.71 79.9504C1609.14 79.9504 1604.91 84.0304 1604.91 91.4224C1604.91 98.0464 1608.61 103.134 1615.52 103.134C1620.61 103.134 1623.83 100.11 1624.79 95.8384H1614.8V90.0304H1632.56C1632.99 101.262 1626.18 109.326 1615.19 109.326Z" fill="white"/>
<path d="M1419.9 270.616C1410.2 270.616 1402.62 262.744 1402.62 252.616C1402.62 242.536 1410.2 234.712 1419.9 234.712C1428.97 234.712 1436.08 240.76 1437.28 249.592H1429.55C1428.73 244.648 1424.89 241.24 1420 241.24C1414.09 241.24 1410.11 245.896 1410.11 252.616C1410.11 259.384 1414.09 264.088 1420 264.088C1424.89 264.088 1428.68 260.632 1429.55 255.688H1437.28C1436.08 264.616 1428.97 270.616 1419.9 270.616ZM1449.67 269.896H1442.37V235.432H1455.86C1464.55 235.432 1469.59 239.464 1469.59 246.616C1469.59 251.272 1466.71 254.968 1461.81 256.6L1470.69 269.896H1462L1454.23 257.704H1449.67V269.896ZM1449.67 241.48V251.704H1455.52C1459.94 251.704 1462.29 249.976 1462.29 246.616C1462.29 243.208 1459.94 241.48 1455.52 241.48H1449.67ZM1482.53 269.896H1475.23V235.432H1482.53V269.896ZM1504.98 269.896H1497.69V242.008H1486.84V235.432H1515.88V242.008H1504.98V269.896ZM1527.53 269.896H1520.23V235.432H1527.53V269.896ZM1549.84 270.616C1540.14 270.616 1532.56 262.744 1532.56 252.616C1532.56 242.536 1540.14 234.712 1549.84 234.712C1558.91 234.712 1566.01 240.76 1567.21 249.592H1559.49C1558.67 244.648 1554.83 241.24 1549.93 241.24C1544.03 241.24 1540.05 245.896 1540.05 252.616C1540.05 259.384 1544.03 264.088 1549.93 264.088C1554.83 264.088 1558.62 260.632 1559.49 255.688H1567.21C1566.01 264.616 1558.91 270.616 1549.84 270.616ZM1593.52 269.896L1590.93 262.504H1577.54L1574.9 269.896H1567.55L1580.51 235.432H1588.48L1601.34 269.896H1593.52ZM1584.3 243.4L1579.6 256.696H1588.91L1584.3 243.4ZM1627.81 269.896H1605.54V235.432H1612.84V263.32H1627.81V269.896ZM1658.26 269.896H1650.97V242.008H1640.12V235.432H1669.16V242.008H1658.26V269.896ZM1680.81 269.896H1673.51V235.432H1680.81V249.016H1695.74V235.432H1703.03V269.896H1695.74V255.304H1680.81V269.896ZM1717.42 269.896H1710.12V235.432H1717.42V269.896ZM1746.93 269.896L1731.14 245.848V269.896H1724.46V235.432H1732.34L1747.36 258.28V235.432H1754.08V269.896H1746.93ZM1768.46 269.896H1761.17V235.432H1768.46V250.6L1780.99 235.432H1789.34L1775.66 251.944L1789.73 269.896H1780.75L1768.46 254.152V269.896ZM1801.09 269.896H1793.79V235.432H1801.09V269.896ZM1830.6 269.896L1814.81 245.848V269.896H1808.14V235.432H1816.01L1831.03 258.28V235.432H1837.75V269.896H1830.6ZM1860.58 270.616C1850.6 270.616 1842.82 263.176 1842.82 252.52C1842.82 242.344 1850.22 234.712 1860.3 234.712C1869.03 234.712 1875.27 239.896 1877.53 247.384H1868.94C1867.88 243.88 1864.71 241.24 1860.1 241.24C1854.54 241.24 1850.31 245.32 1850.31 252.712C1850.31 259.336 1854.01 264.424 1860.92 264.424C1866.01 264.424 1869.22 261.4 1870.18 257.128H1860.2V251.32H1877.96C1878.39 262.552 1871.58 270.616 1860.58 270.616Z" fill="white"/>
<path d="M174.324 294.461L197.79 301.228C196.498 297.687 194.671 294.012 192.623 290.467L206.671 282.286C210.607 288.877 213.049 297.672 213.508 305.696L241.027 313.657L222.113 324.672L211.338 321.619C208.535 330.211 203.474 336.86 196.174 341.111C179.583 350.774 163.163 347.603 154.124 333.026C148.998 324.758 149.769 314.833 155.275 305.259C150.149 303.062 146.393 299.919 143.627 295.459C136.612 284.145 141.441 270.08 154.824 262.285C168.319 254.426 182.202 257.15 189.733 269.052L175.464 277.362C171.741 272.571 166.847 271.719 162.312 274.36C157.998 276.873 156.746 281.896 159.512 286.356C162.008 290.381 166.041 292.03 174.324 294.461ZM168.296 323.588C172.613 330.55 180.699 333.392 189.658 328.175C193.75 325.791 196.812 322.231 198.358 317.925L168.659 309.606C165.848 314.056 165.53 319.128 168.296 323.588Z" fill="white"/>
</svg>
