<svg width="1920" height="1009" viewBox="0 0 1920 1009" fill="none" xmlns="http://www.w3.org/2000/svg">
<rect x="-67.3821" y="667.258" width="2181.38" height="96.7209" transform="rotate(-5.86618 -67.3821 667.258)" fill="#70AAB2" fill-opacity="0.86"/>
<path d="M36.0089 723.24L32.6857 716.147L19.3618 717.495L17.4796 725.116L10.1729 725.855L19.5966 690.261L27.5241 689.459L43.7931 722.452L36.0089 723.24ZM24.1717 697.807L20.8305 711.509L30.0951 710.571L24.1717 697.807ZM60.1481 720.797L47.9703 722.03L44.4999 687.741L56.6777 686.508C67.5661 685.406 74.8621 691.712 75.8723 701.693C76.8825 711.674 70.7977 719.719 60.1481 720.797ZM52.392 693.262L54.596 715.039L59.1329 714.58C65.962 713.889 69.1425 709.562 68.4223 702.447C67.7311 695.618 63.7579 692.112 56.9288 692.803L52.392 693.262ZM106.845 681.431L97.8992 716.976L89.9717 717.779L74.1803 684.737L82.0123 683.944L93.3187 708.9L99.5865 682.165L106.845 681.431ZM121.5 714.588L114.241 715.322L110.771 681.033L118.03 680.299L121.5 714.588ZM143.842 712.326L136.583 713.061L133.775 685.315L122.982 686.407L122.319 679.865L151.212 676.94L151.874 683.483L141.033 684.58L143.842 712.326ZM194.228 696.468C194.891 703.011 190.101 708.127 181.505 708.997C172.861 709.872 166.996 705.786 165.736 698.58L173.091 697.835C173.663 701.589 176.346 703.778 180.787 703.328C184.464 702.956 186.926 701.067 186.646 698.297C186.428 696.148 184.627 695.028 181.655 694.749L175.909 694.221C170.602 693.745 166.305 691.334 165.73 685.651C165.112 679.538 170.063 674.598 177.466 673.849C185.154 673.071 191.244 676.99 192.446 684.105L185.092 684.849C184.491 681.291 181.761 679.107 178.131 679.475C174.597 679.832 172.795 682.041 173.036 684.429C173.273 686.769 175.524 687.554 178.055 687.78L184.05 688.38C190.188 688.965 193.716 691.406 194.228 696.468ZM207.918 705.841L200.659 706.576L197.189 672.287L204.448 671.552L205.815 685.067L220.668 683.564L219.3 670.049L226.559 669.314L230.029 703.603L222.77 704.338L221.301 689.82L206.449 691.323L207.918 705.841ZM260.005 700.569L256.682 693.476L243.358 694.824L241.476 702.445L234.169 703.184L243.593 667.59L251.52 666.788L267.789 699.782L260.005 700.569ZM248.168 675.136L244.827 688.838L254.091 687.9L248.168 675.136ZM279.226 698.624L271.967 699.359L268.496 665.07L281.916 663.712C290.559 662.837 295.98 666.341 296.7 673.457C297.169 678.089 294.676 682.056 289.969 684.173L300.143 696.507L291.499 697.382L282.535 686.035L277.998 686.494L279.226 698.624ZM276.364 670.352L277.394 680.525L283.22 679.935C287.613 679.49 289.779 677.534 289.441 674.191C289.098 670.801 286.584 669.318 282.19 669.763L276.364 670.352ZM320.227 694.474L308.944 672.603L311.249 695.383L304.659 696.05L301.189 661.761L309.88 660.881L322.385 685.282L329.794 658.866L338.486 657.986L341.956 692.275L335.366 692.942L333.041 669.971L326.292 693.86L320.227 694.474ZM371.887 689.246L368.564 682.152L355.24 683.501L353.357 691.121L346.051 691.861L355.474 656.267L363.402 655.464L379.671 688.458L371.887 689.246ZM360.05 663.812L356.708 677.515L365.973 676.577L360.05 663.812Z" fill="white"/>
<path d="M407.158 642.362L412.666 658.812L426.332 648.119L418.59 663.645L435.816 665.743L419.36 671.251L430.055 684.911L414.524 677.173L412.424 694.393L406.916 677.943L393.25 688.636L400.992 673.11L383.766 671.011L400.222 665.504L389.526 651.844L405.057 659.582L407.158 642.362Z" fill="#090908"/>
<path d="M918.711 639.053L915.388 631.96L902.064 633.308L900.181 640.929L892.875 641.668L902.298 606.074L910.226 605.272L926.495 638.265L918.711 639.053ZM906.873 613.62L903.532 627.322L912.797 626.384L906.873 613.62ZM942.85 636.61L930.672 637.843L927.202 603.554L939.379 602.321C950.268 601.219 957.564 607.525 958.574 617.506C959.584 627.487 953.499 635.532 942.85 636.61ZM935.094 609.075L937.298 630.852L941.835 630.393C948.664 629.702 951.844 625.375 951.124 618.26C950.433 611.43 946.46 607.925 939.631 608.616L935.094 609.075ZM989.547 597.244L980.601 632.789L972.674 633.592L956.882 600.55L964.714 599.757L976.021 624.713L982.288 597.978L989.547 597.244ZM1004.2 630.401L996.943 631.135L993.472 596.846L1000.73 596.112L1004.2 630.401ZM1026.54 628.139L1019.28 628.874L1016.48 601.128L1005.68 602.22L1005.02 595.678L1033.91 592.753L1034.58 599.296L1023.74 600.393L1026.54 628.139ZM1076.93 612.281C1077.59 618.824 1072.8 623.94 1064.21 624.81C1055.56 625.685 1049.7 621.599 1048.44 614.393L1055.79 613.648C1056.37 617.402 1059.05 619.591 1063.49 619.141C1067.17 618.769 1069.63 616.88 1069.35 614.11C1069.13 611.961 1067.33 610.841 1064.36 610.562L1058.61 610.034C1053.3 609.558 1049.01 607.147 1048.43 601.464C1047.81 595.351 1052.77 590.411 1060.17 589.662C1067.86 588.884 1073.95 592.803 1075.15 599.918L1067.79 600.662C1067.19 597.104 1064.46 594.92 1060.83 595.288C1057.3 595.645 1055.5 597.854 1055.74 600.242C1055.97 602.582 1058.23 603.367 1060.76 603.593L1066.75 604.193C1072.89 604.778 1076.42 607.219 1076.93 612.281ZM1090.62 621.654L1083.36 622.389L1079.89 588.1L1087.15 587.365L1088.52 600.88L1103.37 599.377L1102 585.862L1109.26 585.127L1112.73 619.416L1105.47 620.151L1104 605.633L1089.15 607.136L1090.62 621.654ZM1142.71 616.382L1139.38 609.289L1126.06 610.637L1124.18 618.258L1116.87 618.997L1126.29 583.403L1134.22 582.601L1150.49 615.594L1142.71 616.382ZM1130.87 590.949L1127.53 604.651L1136.79 603.713L1130.87 590.949ZM1161.93 614.437L1154.67 615.172L1151.2 580.883L1164.62 579.525C1173.26 578.65 1178.68 582.154 1179.4 589.269C1179.87 593.902 1177.38 597.869 1172.67 599.986L1182.84 612.32L1174.2 613.195L1165.24 601.848L1160.7 602.307L1161.93 614.437ZM1159.07 586.165L1160.1 596.338L1165.92 595.748C1170.32 595.303 1172.48 593.347 1172.14 590.004C1171.8 586.613 1169.29 585.131 1164.89 585.576L1159.07 586.165ZM1202.93 610.287L1191.65 588.416L1193.95 611.196L1187.36 611.863L1183.89 577.574L1192.58 576.694L1205.09 601.095L1212.5 574.679L1221.19 573.799L1224.66 608.088L1218.07 608.755L1215.74 585.784L1208.99 609.673L1202.93 610.287ZM1254.59 605.059L1251.27 597.965L1237.94 599.314L1236.06 606.934L1228.75 607.674L1238.18 572.08L1246.1 571.277L1262.37 604.271L1254.59 605.059ZM1242.75 579.625L1239.41 593.328L1248.67 592.39L1242.75 579.625Z" fill="white"/>
<path d="M1289.86 558.175L1295.37 574.625L1309.03 563.932L1301.29 579.458L1318.52 581.556L1302.06 587.064L1312.76 600.724L1297.23 592.986L1295.13 610.206L1289.62 593.756L1275.95 604.449L1283.69 588.923L1266.47 586.824L1282.92 581.317L1272.23 567.657L1287.76 575.395L1289.86 558.175Z" fill="#090908"/>
<path d="M1370.66 596.486L1367.33 589.393L1354.01 590.741L1352.13 598.362L1344.82 599.101L1354.25 563.507L1362.17 562.705L1378.44 595.698L1370.66 596.486ZM1358.82 571.053L1355.48 584.755L1364.74 583.817L1358.82 571.053ZM1394.8 594.043L1382.62 595.276L1379.15 560.987L1391.33 559.754C1402.21 558.652 1409.51 564.958 1410.52 574.939C1411.53 584.92 1405.45 592.965 1394.8 594.043ZM1387.04 566.508L1389.24 588.285L1393.78 587.826C1400.61 587.135 1403.79 582.808 1403.07 575.693C1402.38 568.864 1398.41 565.358 1391.58 566.049L1387.04 566.508ZM1441.49 554.677L1432.55 590.222L1424.62 591.025L1408.83 557.983L1416.66 557.19L1427.97 582.147L1434.24 555.412L1441.49 554.677ZM1456.15 587.834L1448.89 588.568L1445.42 554.28L1452.68 553.545L1456.15 587.834ZM1478.49 585.572L1471.23 586.307L1468.42 558.561L1457.63 559.653L1456.97 553.111L1485.86 550.186L1486.52 556.729L1475.68 557.826L1478.49 585.572ZM1528.88 569.714C1529.54 576.257 1524.75 581.373 1516.15 582.243C1507.51 583.118 1501.65 579.032 1500.39 571.826L1507.74 571.082C1508.31 574.835 1510.99 577.024 1515.44 576.574C1519.11 576.202 1521.58 574.313 1521.29 571.543C1521.08 569.394 1519.28 568.274 1516.3 567.995L1510.56 567.467C1505.25 566.991 1500.95 564.58 1500.38 558.897C1499.76 552.784 1504.71 547.844 1512.11 547.095C1519.8 546.317 1525.89 550.236 1527.1 557.351L1519.74 558.095C1519.14 554.538 1516.41 552.353 1512.78 552.721C1509.25 553.078 1507.44 555.287 1507.69 557.675C1507.92 560.015 1510.17 560.8 1512.7 561.027L1518.7 561.626C1524.84 562.211 1528.36 564.652 1528.88 569.714ZM1542.57 579.087L1535.31 579.822L1531.84 545.533L1539.1 544.798L1540.46 558.313L1555.32 556.81L1553.95 543.295L1561.21 542.561L1564.68 576.849L1557.42 577.584L1555.95 563.066L1541.1 564.569L1542.57 579.087ZM1594.65 573.815L1591.33 566.722L1578.01 568.071L1576.12 575.691L1568.82 576.43L1578.24 540.836L1586.17 540.034L1602.44 573.028L1594.65 573.815ZM1582.82 548.382L1579.48 562.084L1588.74 561.147L1582.82 548.382ZM1613.87 571.87L1606.62 572.605L1603.14 538.316L1616.56 536.958C1625.21 536.083 1630.63 539.587 1631.35 546.703C1631.82 551.335 1629.32 555.302 1624.62 557.419L1634.79 569.753L1626.15 570.628L1617.18 559.281L1612.65 559.74L1613.87 571.87ZM1611.01 543.599L1612.04 553.771L1617.87 553.181C1622.26 552.736 1624.43 550.78 1624.09 547.437C1623.75 544.047 1621.23 542.564 1616.84 543.009L1611.01 543.599ZM1654.88 567.72L1643.59 545.849L1645.9 568.629L1639.31 569.296L1635.84 535.007L1644.53 534.127L1657.03 558.528L1664.44 532.112L1673.13 531.232L1676.61 565.521L1670.01 566.188L1667.69 543.217L1660.94 567.106L1654.88 567.72ZM1706.54 562.492L1703.21 555.398L1689.89 556.747L1688.01 564.367L1680.7 565.107L1690.12 529.513L1698.05 528.711L1714.32 561.704L1706.54 562.492ZM1694.7 537.059L1691.36 550.761L1700.62 549.823L1694.7 537.059Z" fill="white"/>
<path d="M1741.81 515.608L1747.31 532.058L1760.98 521.365L1753.24 536.891L1770.47 538.989L1754.01 544.497L1764.7 558.157L1749.17 550.419L1747.07 567.639L1741.56 551.189L1727.9 561.882L1735.64 546.356L1718.41 544.258L1734.87 538.75L1724.18 525.09L1739.71 532.828L1741.81 515.608Z" fill="#090908"/>
<path d="M479.724 680.192L476.4 673.098L463.077 674.447L461.194 682.067L453.888 682.807L463.311 647.213L471.239 646.411L487.508 679.404L479.724 680.192ZM467.886 654.759L464.545 668.461L473.81 667.523L467.886 654.759ZM503.863 677.749L491.685 678.981L488.215 644.692L500.392 643.46C511.281 642.358 518.577 648.663 519.587 658.644C520.597 668.625 514.512 676.671 503.863 677.749ZM496.107 650.214L498.311 671.991L502.848 671.531C509.677 670.84 512.857 666.514 512.137 659.398C511.446 652.569 507.473 649.063 500.644 649.755L496.107 650.214ZM550.56 638.382L541.614 673.928L533.686 674.73L517.895 641.688L525.727 640.896L537.033 665.852L543.301 639.117L550.56 638.382ZM565.215 671.539L557.956 672.274L554.485 637.985L561.744 637.25L565.215 671.539ZM587.556 669.278L580.297 670.013L577.489 642.266L566.696 643.359L566.034 636.816L594.927 633.892L595.589 640.435L584.748 641.532L587.556 669.278ZM637.943 653.42C638.605 659.962 633.816 665.078 625.22 665.949C616.576 666.823 610.711 662.737 609.451 655.531L616.805 654.787C617.378 658.541 620.06 660.73 624.502 660.28C628.179 659.908 630.641 658.018 630.361 655.248C630.143 653.099 628.341 651.979 625.37 651.701L619.624 651.173C614.317 650.697 610.02 648.285 609.445 642.602C608.826 636.49 613.778 631.55 621.18 630.801C628.869 630.022 634.959 633.941 636.161 641.056L628.807 641.801C628.205 638.243 625.476 636.059 621.846 636.426C618.312 636.784 616.509 638.993 616.751 641.38C616.988 643.72 619.238 644.506 621.77 644.732L627.765 645.331C633.903 645.916 637.431 648.358 637.943 653.42ZM651.633 662.793L644.374 663.527L640.903 629.239L648.162 628.504L649.53 642.019L664.382 640.516L663.014 627.001L670.273 626.266L673.744 660.555L666.485 661.29L665.015 646.772L650.163 648.275L651.633 662.793ZM703.72 657.521L700.397 650.428L687.073 651.776L685.191 659.396L677.884 660.136L687.308 624.542L695.235 623.74L711.504 656.733L703.72 657.521ZM691.883 632.088L688.541 645.79L697.806 644.852L691.883 632.088ZM722.94 655.576L715.681 656.31L712.211 622.022L725.63 620.663C734.274 619.789 739.695 623.293 740.415 630.408C740.884 635.041 738.39 639.008 733.684 641.124L743.857 653.459L735.214 654.334L726.249 642.987L721.713 643.446L722.94 655.576ZM720.079 627.304L721.108 637.476L726.935 636.887C731.328 636.442 733.494 634.486 733.156 631.143C732.813 627.752 730.299 626.27 725.905 626.714L720.079 627.304ZM763.942 651.426L752.658 629.555L754.964 652.335L748.374 653.002L744.903 618.713L753.595 617.833L766.1 642.234L773.509 615.818L782.201 614.938L785.671 649.227L779.081 649.894L776.756 626.923L770.007 650.812L763.942 651.426ZM815.601 646.197L812.278 639.104L798.954 640.452L797.072 648.073L789.765 648.812L799.189 613.218L807.117 612.416L823.386 645.41L815.601 646.197ZM803.764 620.764L800.423 634.466L809.688 633.528L803.764 620.764Z" fill="white"/>
<path d="M850.873 599.313L856.381 615.763L870.047 605.071L862.305 620.597L879.531 622.695L863.075 628.202L873.77 641.862L858.239 634.125L856.139 651.345L850.631 634.895L836.965 645.588L844.707 630.061L827.48 627.963L843.937 622.456L833.241 608.796L848.772 616.533L850.873 599.313Z" fill="#090908"/>
<path d="M1813.01 548.24L1809.69 541.147L1796.36 542.495L1794.48 550.116L1787.17 550.855L1796.6 515.261L1804.52 514.459L1820.79 547.452L1813.01 548.24ZM1801.17 522.807L1797.83 536.509L1807.1 535.571L1801.17 522.807ZM1837.15 545.797L1824.97 547.03L1821.5 512.741L1833.68 511.508C1844.57 510.406 1851.86 516.712 1852.87 526.693C1853.88 536.674 1847.8 544.719 1837.15 545.797ZM1829.39 518.262L1831.6 540.039L1836.13 539.58C1842.96 538.889 1846.14 534.562 1845.42 527.447C1844.73 520.618 1840.76 517.112 1833.93 517.803L1829.39 518.262ZM1883.85 506.431L1874.9 541.976L1866.97 542.779L1851.18 509.737L1859.01 508.944L1870.32 533.9L1876.59 507.165L1883.85 506.431ZM1898.5 539.588L1891.24 540.322L1887.77 506.033L1895.03 505.299L1898.5 539.588ZM1920.84 537.326L1913.58 538.061L1910.77 510.315L1899.98 511.407L1899.32 504.865L1928.21 501.94L1928.87 508.483L1918.03 509.58L1920.84 537.326ZM1971.23 521.468C1971.89 528.011 1967.1 533.127 1958.51 533.997C1949.86 534.872 1944 530.786 1942.74 523.58L1950.09 522.835C1950.66 526.589 1953.35 528.778 1957.79 528.328C1961.46 527.956 1963.93 526.067 1963.65 523.297C1963.43 521.148 1961.63 520.028 1958.66 519.749L1952.91 519.221C1947.6 518.745 1943.31 516.334 1942.73 510.651C1942.11 504.538 1947.06 499.598 1954.47 498.849C1962.15 498.071 1968.24 501.99 1969.45 509.105L1962.09 509.849C1961.49 506.291 1958.76 504.107 1955.13 504.475C1951.6 504.832 1949.79 507.041 1950.04 509.429C1950.27 511.769 1952.52 512.554 1955.06 512.78L1961.05 513.38C1967.19 513.965 1970.72 516.406 1971.23 521.468ZM1984.92 530.841L1977.66 531.576L1974.19 497.287L1981.45 496.552L1982.82 510.067L1997.67 508.564L1996.3 495.049L2003.56 494.314L2007.03 528.603L1999.77 529.338L1998.3 514.82L1983.45 516.323L1984.92 530.841ZM2037.01 525.569L2033.68 518.476L2020.36 519.824L2018.48 527.445L2011.17 528.184L2020.59 492.59L2028.52 491.788L2044.79 524.782L2037.01 525.569ZM2025.17 500.136L2021.83 513.838L2031.09 512.9L2025.17 500.136ZM2056.23 523.624L2048.97 524.359L2045.5 490.07L2058.92 488.712C2067.56 487.837 2072.98 491.341 2073.7 498.457C2074.17 503.089 2071.68 507.056 2066.97 509.173L2077.14 521.507L2068.5 522.382L2059.53 511.035L2055 511.494L2056.23 523.624ZM2053.36 495.352L2054.39 505.525L2060.22 504.935C2064.61 504.49 2066.78 502.534 2066.44 499.191C2066.1 495.801 2063.58 494.318 2059.19 494.763L2053.36 495.352ZM2097.23 519.474L2085.94 497.603L2088.25 520.383L2081.66 521.05L2078.19 486.761L2086.88 485.881L2099.38 510.282L2106.79 483.866L2115.49 482.986L2118.96 517.275L2112.37 517.942L2110.04 494.971L2103.29 518.86L2097.23 519.474ZM2148.89 514.246L2145.56 507.152L2132.24 508.501L2130.36 516.121L2123.05 516.861L2132.47 481.267L2140.4 480.464L2156.67 513.458L2148.89 514.246ZM2137.05 488.812L2133.71 502.515L2142.97 501.577L2137.05 488.812Z" fill="white"/>
<rect x="-93.7234" y="462" width="2181.38" height="96.7209" transform="rotate(4.90895 -93.7234 462)" fill="#A7CC2E"/>
<path d="M1822.83 701.872L1820.88 694.286L1807.54 693.139L1804.27 700.278L1796.96 699.65L1812.82 666.421L1820.76 667.103L1830.62 702.542L1822.83 701.872ZM1815.91 674.685L1810.09 687.529L1819.37 688.326L1815.91 674.685ZM1847 703.949L1834.81 702.901L1837.76 668.564L1849.95 669.611C1860.86 670.548 1866.86 678.097 1866 688.093C1865.14 698.088 1857.67 704.865 1847 703.949ZM1844.49 675.453L1842.61 697.261L1847.16 697.651C1854 698.239 1857.92 694.577 1858.54 687.452C1859.12 680.613 1855.87 676.431 1849.03 675.844L1844.49 675.453ZM1900.19 673.927L1884.81 707.197L1876.87 706.515L1867.48 671.117L1875.32 671.791L1881.8 698.411L1892.92 673.303L1900.19 673.927ZM1908.44 709.227L1901.17 708.603L1904.12 674.265L1911.39 674.889L1908.44 709.227ZM1930.81 711.149L1923.54 710.525L1925.93 682.739L1915.12 681.81L1915.69 675.259L1944.62 677.744L1944.06 684.296L1933.2 683.363L1930.81 711.149ZM1983.27 704.912C1982.71 711.464 1977.05 715.603 1968.44 714.863C1959.79 714.12 1954.78 709.016 1954.88 701.702L1962.24 702.335C1962.11 706.129 1964.34 708.778 1968.79 709.16C1972.47 709.476 1975.24 708.076 1975.48 705.302C1975.66 703.15 1974.1 701.715 1971.23 700.891L1965.68 699.306C1960.56 697.854 1956.78 694.687 1957.27 688.996C1957.8 682.875 1963.58 678.939 1970.99 679.576C1978.69 680.237 1983.95 685.218 1983.81 692.432L1976.45 691.8C1976.51 688.192 1974.24 685.54 1970.6 685.227C1967.06 684.923 1964.88 686.759 1964.68 689.151C1964.48 691.494 1966.54 692.683 1968.99 693.375L1974.77 695.076C1980.69 696.789 1983.7 699.842 1983.27 704.912ZM1994.98 716.661L1987.71 716.037L1990.66 681.699L1997.93 682.324L1996.77 695.858L2011.64 697.136L2012.8 683.602L2020.07 684.226L2017.12 718.564L2009.85 717.939L2011.1 703.401L1996.23 702.123L1994.98 716.661ZM2047.14 721.142L2045.19 713.556L2031.85 712.409L2028.59 719.548L2021.27 718.92L2037.13 685.691L2045.07 686.373L2054.94 721.812L2047.14 721.142ZM2040.23 693.955L2034.4 706.799L2043.68 707.596L2040.23 693.955ZM2066.39 722.796L2059.12 722.171L2062.07 687.834L2075.51 688.988C2084.17 689.732 2088.84 694.18 2088.23 701.306C2087.83 705.945 2084.65 709.381 2079.63 710.588L2087.34 724.595L2078.68 723.852L2071.98 711.039L2067.43 710.649L2066.39 722.796ZM2068.82 694.484L2067.95 704.671L2073.78 705.172C2078.18 705.55 2080.67 704.029 2080.96 700.682C2081.25 697.286 2079.06 695.363 2074.66 694.985L2068.82 694.484ZM2107.45 726.323L2100.42 702.739L2098.46 725.551L2091.86 724.984L2094.81 690.646L2103.51 691.394L2111.28 717.691L2123.46 693.107L2132.16 693.855L2129.21 728.192L2122.61 727.625L2124.59 704.622L2113.52 726.845L2107.45 726.323ZM2159.18 730.767L2157.23 723.181L2143.89 722.034L2140.63 729.173L2133.31 728.545L2149.17 695.316L2157.11 695.998L2166.98 731.437L2159.18 730.767ZM2152.27 703.58L2146.44 716.424L2155.72 717.221L2152.27 703.58Z" fill="white"/>
<path d="M47.8281 538.872L45.8783 531.286L32.5354 530.139L29.2724 537.278L21.9554 536.65L37.8176 503.421L45.7564 504.103L55.6234 539.542L47.8281 538.872ZM40.9137 511.685L35.089 524.529L44.3668 525.326L40.9137 511.685ZM72.0016 540.949L59.8065 539.901L62.7563 505.564L74.9514 506.611C85.8552 507.548 91.8551 515.097 90.9964 525.093C90.1378 535.088 82.6663 541.865 72.0016 540.949ZM69.4873 512.453L67.6139 534.261L72.1572 534.651C78.996 535.239 82.9238 531.577 83.5359 524.452C84.1234 517.613 80.8694 513.431 74.0306 512.844L69.4873 512.453ZM125.19 510.927L109.806 544.197L101.868 543.515L92.4788 508.117L100.322 508.791L106.803 535.411L117.921 510.303L125.19 510.927ZM133.441 546.227L126.171 545.603L129.121 511.265L136.39 511.889L133.441 546.227ZM155.814 548.149L148.545 547.525L150.932 519.739L140.124 518.81L140.686 512.259L169.62 514.744L169.057 521.296L158.201 520.363L155.814 548.149ZM208.268 541.912C207.705 548.464 202.05 552.603 193.442 551.863C184.786 551.12 179.78 546.016 179.878 538.702L187.243 539.335C187.11 543.129 189.339 545.778 193.787 546.16C197.47 546.476 200.24 545.076 200.478 542.302C200.663 540.15 199.1 538.715 196.232 537.891L190.683 536.306C185.557 534.854 181.782 531.687 182.271 525.996C182.797 519.875 188.579 515.939 195.991 516.576C203.691 517.237 208.948 522.218 208.81 529.432L201.445 528.8C201.514 525.192 199.237 522.54 195.602 522.227C192.063 521.923 189.882 523.759 189.677 526.151C189.475 528.494 191.541 529.683 193.987 530.375L199.766 532.076C205.69 533.789 208.703 536.842 208.268 541.912ZM219.981 553.661L212.712 553.037L215.662 518.699L222.931 519.324L221.768 532.858L236.642 534.136L237.804 520.602L245.074 521.226L242.124 555.564L234.854 554.939L236.103 540.401L221.23 539.123L219.981 553.661ZM272.143 558.142L270.193 550.556L256.85 549.409L253.587 556.548L246.27 555.92L262.132 522.691L270.071 523.373L279.938 558.812L272.143 558.142ZM265.228 530.955L259.403 543.799L268.681 544.596L265.228 530.955ZM291.39 559.796L284.121 559.171L287.071 524.834L300.509 525.988C309.165 526.732 313.842 531.18 313.23 538.306C312.831 542.945 309.645 546.381 304.628 547.588L312.337 561.595L303.681 560.852L296.977 548.039L292.434 547.649L291.39 559.796ZM293.822 531.484L292.947 541.671L298.782 542.172C303.182 542.55 305.673 541.029 305.96 537.682C306.252 534.286 304.057 532.363 299.657 531.985L293.822 531.484ZM332.45 563.323L325.419 539.739L323.459 562.551L316.86 561.984L319.81 527.646L328.513 528.394L336.275 554.691L348.456 530.107L357.16 530.855L354.21 565.192L347.61 564.625L349.587 541.622L338.524 563.845L332.45 563.323ZM384.183 567.767L382.233 560.181L368.89 559.034L365.627 566.173L358.31 565.545L374.173 532.316L382.111 532.998L391.978 568.437L384.183 567.767ZM377.269 540.58L371.444 553.424L380.722 554.221L377.269 540.58Z" fill="white"/>
<path d="M427.538 528.239L429.9 545.425L445.312 537.453L434.824 551.274L451.362 556.531L434.17 558.89L442.146 574.297L428.32 563.813L423.062 580.344L420.701 563.158L405.289 571.131L415.776 557.31L399.238 552.053L416.43 549.693L408.454 534.286L422.28 544.771L427.538 528.239Z" fill="#090908"/>
<path d="M930.828 619.872L928.878 612.286L915.536 611.139L912.273 618.278L904.955 617.65L920.818 584.421L928.757 585.103L938.623 620.542L930.828 619.872ZM923.914 592.685L918.089 605.529L927.367 606.326L923.914 592.685ZM955.002 621.949L942.807 620.901L945.756 586.564L957.951 587.611C968.855 588.548 974.855 596.097 973.997 606.093C973.138 616.088 965.666 622.865 955.002 621.949ZM952.487 593.453L950.614 615.261L955.157 615.651C961.996 616.239 965.924 612.577 966.536 605.452C967.124 598.613 963.87 594.431 957.031 593.844L952.487 593.453ZM1008.19 591.927L992.806 625.197L984.868 624.515L975.479 589.117L983.322 589.791L989.803 616.411L1000.92 591.303L1008.19 591.927ZM1016.44 627.227L1009.17 626.603L1012.12 592.265L1019.39 592.889L1016.44 627.227ZM1038.81 629.149L1031.54 628.525L1033.93 600.739L1023.12 599.81L1023.69 593.259L1052.62 595.744L1052.06 602.296L1041.2 601.363L1038.81 629.149ZM1091.27 622.912C1090.71 629.464 1085.05 633.603 1076.44 632.863C1067.79 632.12 1062.78 627.016 1062.88 619.702L1070.24 620.335C1070.11 624.129 1072.34 626.778 1076.79 627.16C1080.47 627.476 1083.24 626.076 1083.48 623.302C1083.66 621.15 1082.1 619.715 1079.23 618.891L1073.68 617.306C1068.56 615.854 1064.78 612.687 1065.27 606.996C1065.8 600.875 1071.58 596.939 1078.99 597.576C1086.69 598.237 1091.95 603.218 1091.81 610.432L1084.45 609.8C1084.51 606.192 1082.24 603.54 1078.6 603.227C1075.06 602.923 1072.88 604.759 1072.68 607.151C1072.48 609.494 1074.54 610.683 1076.99 611.375L1082.77 613.076C1088.69 614.789 1091.7 617.842 1091.27 622.912ZM1102.98 634.661L1095.71 634.037L1098.66 599.699L1105.93 600.324L1104.77 613.858L1119.64 615.136L1120.8 601.602L1128.07 602.226L1125.12 636.564L1117.85 635.939L1119.1 621.401L1104.23 620.123L1102.98 634.661ZM1155.14 639.142L1153.19 631.556L1139.85 630.409L1136.59 637.548L1129.27 636.92L1145.13 603.691L1153.07 604.373L1162.94 639.812L1155.14 639.142ZM1148.23 611.955L1142.4 624.799L1151.68 625.596L1148.23 611.955ZM1174.39 640.796L1167.12 640.171L1170.07 605.834L1183.51 606.988C1192.17 607.732 1196.84 612.18 1196.23 619.306C1195.83 623.945 1192.65 627.381 1187.63 628.588L1195.34 642.595L1186.68 641.852L1179.98 629.039L1175.43 628.649L1174.39 640.796ZM1176.82 612.484L1175.95 622.671L1181.78 623.172C1186.18 623.55 1188.67 622.029 1188.96 618.682C1189.25 615.286 1187.06 613.363 1182.66 612.985L1176.82 612.484ZM1215.45 644.323L1208.42 620.739L1206.46 643.551L1199.86 642.984L1202.81 608.646L1211.51 609.394L1219.28 635.691L1231.46 611.107L1240.16 611.855L1237.21 646.192L1230.61 645.625L1232.59 622.622L1221.52 644.845L1215.45 644.323ZM1267.18 648.767L1265.23 641.181L1251.89 640.034L1248.63 647.173L1241.31 646.545L1257.17 613.316L1265.11 613.998L1274.98 649.437L1267.18 648.767ZM1260.27 621.58L1254.44 634.424L1263.72 635.221L1260.27 621.58Z" fill="white"/>
<path d="M1310.54 609.239L1312.9 626.425L1328.31 618.453L1317.82 632.274L1334.36 637.531L1317.17 639.89L1325.15 655.297L1311.32 644.813L1306.06 661.344L1303.7 644.158L1288.29 652.131L1298.78 638.31L1282.24 633.053L1299.43 630.693L1291.45 615.286L1305.28 625.771L1310.54 609.239Z" fill="#090908"/>
<path d="M1382.83 661.872L1380.88 654.286L1367.54 653.139L1364.27 660.278L1356.96 659.65L1372.82 626.421L1380.76 627.103L1390.62 662.542L1382.83 661.872ZM1375.91 634.685L1370.09 647.529L1379.37 648.326L1375.91 634.685ZM1407 663.949L1394.81 662.901L1397.76 628.564L1409.95 629.611C1420.86 630.548 1426.86 638.097 1426 648.093C1425.14 658.088 1417.67 664.865 1407 663.949ZM1404.49 635.453L1402.61 657.261L1407.16 657.651C1414 658.239 1417.92 654.577 1418.54 647.452C1419.12 640.613 1415.87 636.431 1409.03 635.844L1404.49 635.453ZM1460.19 633.927L1444.81 667.197L1436.87 666.515L1427.48 631.117L1435.32 631.791L1441.8 658.411L1452.92 633.303L1460.19 633.927ZM1468.44 669.227L1461.17 668.603L1464.12 634.265L1471.39 634.889L1468.44 669.227ZM1490.81 671.149L1483.54 670.525L1485.93 642.739L1475.12 641.81L1475.69 635.259L1504.62 637.744L1504.06 644.296L1493.2 643.363L1490.81 671.149ZM1543.27 664.912C1542.71 671.464 1537.05 675.603 1528.44 674.863C1519.79 674.12 1514.78 669.016 1514.88 661.702L1522.24 662.335C1522.11 666.129 1524.34 668.778 1528.79 669.16C1532.47 669.476 1535.24 668.076 1535.48 665.302C1535.66 663.15 1534.1 661.715 1531.23 660.891L1525.68 659.306C1520.56 657.854 1516.78 654.687 1517.27 648.996C1517.8 642.875 1523.58 638.939 1530.99 639.576C1538.69 640.237 1543.95 645.218 1543.81 652.432L1536.45 651.8C1536.51 648.192 1534.24 645.54 1530.6 645.227C1527.06 644.923 1524.88 646.759 1524.68 649.151C1524.48 651.494 1526.54 652.683 1528.99 653.375L1534.77 655.076C1540.69 656.789 1543.7 659.842 1543.27 664.912ZM1554.98 676.661L1547.71 676.037L1550.66 641.699L1557.93 642.324L1556.77 655.858L1571.64 657.136L1572.8 643.602L1580.07 644.226L1577.12 678.564L1569.85 677.939L1571.1 663.401L1556.23 662.123L1554.98 676.661ZM1607.14 681.142L1605.19 673.556L1591.85 672.409L1588.59 679.548L1581.27 678.92L1597.13 645.691L1605.07 646.373L1614.94 681.812L1607.14 681.142ZM1600.23 653.955L1594.4 666.799L1603.68 667.596L1600.23 653.955ZM1626.39 682.796L1619.12 682.171L1622.07 647.834L1635.51 648.988C1644.17 649.732 1648.84 654.18 1648.23 661.306C1647.83 665.945 1644.65 669.381 1639.63 670.588L1647.34 684.595L1638.68 683.852L1631.98 671.039L1627.43 670.649L1626.39 682.796ZM1628.82 654.484L1627.95 664.671L1633.78 665.172C1638.18 665.55 1640.67 664.029 1640.96 660.682C1641.25 657.286 1639.06 655.363 1634.66 654.985L1628.82 654.484ZM1667.45 686.323L1660.42 662.739L1658.46 685.551L1651.86 684.984L1654.81 650.646L1663.51 651.394L1671.28 677.691L1683.46 653.107L1692.16 653.855L1689.21 688.192L1682.61 687.625L1684.59 664.622L1673.52 686.845L1667.45 686.323ZM1719.18 690.767L1717.23 683.181L1703.89 682.034L1700.63 689.173L1693.31 688.545L1709.17 655.316L1717.11 655.998L1726.98 691.437L1719.18 690.767ZM1712.27 663.58L1706.44 676.424L1715.72 677.221L1712.27 663.58Z" fill="white"/>
<path d="M1762.54 651.239L1764.9 668.425L1780.31 660.453L1769.82 674.274L1786.36 679.531L1769.17 681.89L1777.15 697.297L1763.32 686.813L1758.06 703.344L1755.7 686.158L1740.29 694.131L1750.78 680.31L1734.24 675.053L1751.43 672.693L1743.45 657.286L1757.28 667.771L1762.54 651.239Z" fill="#090908"/>
<path d="M491.828 578.872L489.878 571.286L476.536 570.139L473.273 577.278L465.955 576.65L481.818 543.421L489.757 544.103L499.623 579.542L491.828 578.872ZM484.914 551.685L479.089 564.529L488.367 565.326L484.914 551.685ZM516.002 580.949L503.807 579.901L506.756 545.564L518.951 546.611C529.855 547.548 535.855 555.097 534.997 565.093C534.138 575.088 526.666 581.865 516.002 580.949ZM513.487 552.453L511.614 574.261L516.157 574.651C522.996 575.239 526.924 571.577 527.536 564.452C528.124 557.613 524.87 553.431 518.031 552.844L513.487 552.453ZM569.19 550.927L553.806 584.197L545.868 583.515L536.479 548.117L544.322 548.791L550.803 575.411L561.921 550.303L569.19 550.927ZM577.441 586.227L570.172 585.603L573.121 551.265L580.391 551.889L577.441 586.227ZM599.814 588.149L592.545 587.525L594.932 559.739L584.124 558.81L584.686 552.259L613.62 554.744L613.057 561.296L602.201 560.363L599.814 588.149ZM652.268 581.912C651.705 588.464 646.05 592.603 637.442 591.863C628.786 591.12 623.78 586.016 623.878 578.702L631.243 579.335C631.11 583.129 633.34 585.778 637.787 586.16C641.47 586.476 644.24 585.076 644.478 582.302C644.663 580.15 643.1 578.715 640.232 577.891L634.683 576.306C629.557 574.854 625.782 571.687 626.271 565.996C626.797 559.875 632.579 555.939 639.991 556.576C647.691 557.237 652.948 562.218 652.81 569.432L645.445 568.8C645.514 565.192 643.237 562.54 639.602 562.227C636.063 561.923 633.882 563.759 633.677 566.151C633.475 568.494 635.541 569.683 637.987 570.375L643.767 572.076C649.69 573.789 652.703 576.842 652.268 581.912ZM663.981 593.661L656.712 593.037L659.662 558.699L666.931 559.324L665.769 572.858L680.642 574.136L681.804 560.602L689.074 561.226L686.124 595.564L678.855 594.939L680.104 580.401L665.23 579.123L663.981 593.661ZM716.143 598.142L714.193 590.556L700.85 589.409L697.587 596.548L690.27 595.92L706.132 562.691L714.071 563.373L723.938 598.812L716.143 598.142ZM709.228 570.955L703.404 583.799L712.681 584.596L709.228 570.955ZM735.39 599.796L728.121 599.171L731.071 564.834L744.509 565.988C753.165 566.732 757.842 571.18 757.23 578.306C756.831 582.945 753.645 586.381 748.628 587.588L756.337 601.595L747.681 600.852L740.977 588.039L736.434 587.649L735.39 599.796ZM737.822 571.484L736.947 581.671L742.782 582.172C747.182 582.55 749.673 581.029 749.96 577.682C750.252 574.286 748.057 572.363 743.657 571.985L737.822 571.484ZM776.45 603.323L769.419 579.739L767.46 602.551L760.86 601.984L763.81 567.646L772.514 568.394L780.275 594.691L792.456 570.107L801.16 570.855L798.21 605.192L791.611 604.625L793.587 581.622L782.524 603.845L776.45 603.323ZM828.183 607.767L826.233 600.181L812.89 599.034L809.627 606.173L802.31 605.545L818.173 572.316L826.111 572.998L835.978 608.437L828.183 607.767ZM821.269 580.58L815.444 593.424L824.722 594.221L821.269 580.58Z" fill="white"/>
<path d="M871.538 568.239L873.9 585.425L889.312 577.453L878.824 591.274L895.362 596.531L878.17 598.89L886.146 614.297L872.32 603.813L867.062 620.344L864.701 603.158L849.289 611.131L859.776 597.31L843.238 592.053L860.43 589.693L852.454 574.286L866.28 584.771L871.538 568.239Z" fill="#090908"/>
</svg>
