<svg width="114" height="113" viewBox="0 0 114 113" fill="none" xmlns="http://www.w3.org/2000/svg">
<path d="M80.6749 23.2202C62.2031 10.3888 36.6125 15.0435 23.514 33.6015C10.4156 52.1595 14.7592 77.6079 33.231 90.4393C51.7029 103.271 77.2935 98.6161 90.3919 80.0581C103.49 61.5001 99.1468 36.0517 80.6749 23.2202Z" fill="#0E1211" stroke="#6F6F6F"/>
<path d="M68.8212 41.8541C68.6779 41.0414 67.8978 40.4995 67.079 40.6439L53.7343 42.9969C52.9155 43.1412 52.3678 43.9172 52.5111 44.73C52.6544 45.5427 53.4344 46.0846 54.2533 45.9402L66.1152 43.8487L68.1911 55.6221C68.3344 56.4348 69.1144 56.9767 69.9333 56.8323C70.7522 56.6879 71.2999 55.912 71.1566 55.0992L68.8212 41.8541ZM48.0806 72.0015L68.5704 42.9713L66.1065 41.2598L45.6167 70.29L48.0806 72.0015Z" fill="#C4FF00"/>
</svg>
