<svg width="40" height="40" viewBox="0 0 40 40" fill="none" xmlns="http://www.w3.org/2000/svg">
<g clip-path="url(#clip0_289_180)">
<path d="M11.6024 8.01514C12.7824 8.01514 13.8449 8.11764 14.8124 8.32764C15.7824 8.53014 16.6024 8.87514 17.2974 9.34263C17.9849 9.81263 18.5149 10.4376 18.9074 11.2176C19.2824 11.9901 19.4699 12.9601 19.4699 14.1076C19.4699 15.3501 19.1899 16.3801 18.6249 17.2101C18.0549 18.0376 17.2274 18.7101 16.1174 19.2426C17.6324 19.6801 18.7499 20.4451 19.4999 21.5326C20.2499 22.6276 20.6099 23.9401 20.6099 25.4851C20.6099 26.7351 20.3674 27.8051 19.8924 28.7126C19.4074 29.6276 18.7524 30.3676 17.9474 30.9401C17.1349 31.5176 16.1974 31.9401 15.1499 32.2126C14.1099 32.4851 13.0399 32.6276 11.9324 32.6276H0.00244141V8.01764H11.6049L11.6024 8.01514ZM10.8974 17.9526C11.8574 17.9526 12.6549 17.7251 13.2799 17.2651C13.9049 16.8126 14.2024 16.0626 14.2024 15.0301C14.2024 14.4601 14.0999 13.9826 13.8974 13.6151C13.6874 13.2476 13.4124 12.9576 13.0624 12.7551C12.7174 12.5451 12.3274 12.4026 11.8674 12.3251C11.4224 12.2401 10.9524 12.2001 10.4774 12.2001H5.41493V17.9501H10.8999L10.8974 17.9526ZM11.1949 28.4301C11.7274 28.4301 12.2349 28.3826 12.7099 28.2726C13.1949 28.1626 13.6249 28.0001 13.9824 27.7501C14.3424 27.5076 14.6474 27.1876 14.8649 26.7651C15.0849 26.3501 15.1849 25.8201 15.1849 25.1726C15.1849 23.9076 14.8249 23.0001 14.1149 22.4526C13.4049 21.9126 12.4599 21.6476 11.2874 21.6476H5.41243V28.4201H11.1949V28.4301Z" fill="white"/>
<path d="M28.3274 28.3448C29.0624 29.0623 30.1174 29.4223 31.4924 29.4223C32.4774 29.4223 33.3374 29.1723 34.0474 28.6723C34.7574 28.1723 35.1874 27.6423 35.3524 27.0948H39.6649C38.9699 29.2423 37.9224 30.7673 36.4849 31.6898C35.0699 32.6123 33.3374 33.0798 31.3274 33.0798C29.9199 33.0798 28.6624 32.8523 27.5299 32.4073C26.3974 31.9548 25.4524 31.3223 24.6549 30.4923C23.8824 29.6648 23.2724 28.6798 22.8424 27.5223C22.4199 26.3748 22.2024 25.0998 22.2024 23.7248C22.2024 22.3898 22.4224 21.1473 22.8574 19.9973C23.3024 18.8398 23.9124 17.8498 24.7249 17.0123C25.5374 16.1748 26.4899 15.5123 27.6149 15.0273C28.7324 14.5423 29.9674 14.2998 31.3349 14.2998C32.8424 14.2998 34.1624 14.5898 35.2949 15.1823C36.4199 15.7673 37.3499 16.5573 38.0774 17.5423C38.8049 18.5273 39.3199 19.6598 39.6399 20.9248C39.9599 22.1898 40.0699 23.5098 39.9824 24.8948H27.1149C27.1149 26.2923 27.5849 27.6298 28.3249 28.3398L28.3274 28.3448ZM33.9449 18.9848C33.3674 18.3448 32.3749 17.9923 31.1799 17.9923C30.3974 17.9923 29.7499 18.1248 29.2349 18.3898C28.7274 18.6548 28.3124 18.9823 27.9924 19.3748C27.6799 19.7648 27.4599 20.1873 27.3374 20.6323C27.2124 21.0623 27.1349 21.4598 27.1099 21.8048H35.0799C34.9624 20.5548 34.5324 19.6323 33.9474 18.9848H33.9449Z" fill="white"/>
<path d="M26.1099 10H36.0874V12.43H26.1099V10Z" fill="white"/>
</g>
<defs>
<clipPath id="clip0_289_180">
<rect width="39.9999" height="39.9999" fill="white"/>
</clipPath>
</defs>
</svg>
