<svg width="40" height="31" viewBox="0 0 40 31" fill="none" xmlns="http://www.w3.org/2000/svg">
<path d="M33.8616 2.88672C31.2683 1.69177 28.5315 0.83965 25.7198 0.351712C25.6943 0.346929 25.6679 0.350353 25.6444 0.361497C25.6209 0.372641 25.6015 0.390937 25.589 0.413783C25.2373 1.04168 24.8478 1.86064 24.5751 2.50426C21.5006 2.04217 18.4418 2.04217 15.4305 2.50426C15.1578 1.84625 14.7542 1.04168 14.401 0.413783C14.3879 0.391458 14.3684 0.373609 14.3451 0.362567C14.3217 0.351524 14.2956 0.3478 14.2702 0.35188C11.4581 0.838683 8.72115 1.69073 6.12816 2.88656C6.10598 2.89607 6.08729 2.91227 6.07467 2.9329C0.889006 10.7099 -0.531659 18.2957 0.16534 25.7875C0.167311 25.8058 0.172928 25.8236 0.18186 25.8397C0.190793 25.8558 0.202857 25.87 0.21734 25.8814C3.63867 28.4037 6.95283 29.9348 10.2055 30.9497C10.2308 30.9573 10.2578 30.9569 10.2829 30.9487C10.3079 30.9404 10.3299 30.9247 10.3458 30.9035C11.1152 29.8488 11.801 28.7366 12.3892 27.5671C12.3972 27.5511 12.4019 27.5336 12.4027 27.5156C12.4035 27.4977 12.4006 27.4798 12.394 27.4631C12.3875 27.4464 12.3775 27.4313 12.3647 27.4187C12.3519 27.4062 12.3366 27.3965 12.3198 27.3903C11.2318 26.976 10.196 26.4709 9.19949 25.8974C9.18132 25.8867 9.16606 25.8717 9.15505 25.8536C9.14404 25.8356 9.13763 25.8151 9.13638 25.794C9.13512 25.7729 9.13907 25.7518 9.14787 25.7325C9.15667 25.7133 9.17005 25.6966 9.18683 25.6838C9.39649 25.526 9.60633 25.362 9.80649 25.1962C9.82428 25.1815 9.84582 25.1721 9.86867 25.169C9.89152 25.1659 9.91478 25.1692 9.93583 25.1787C16.4822 28.179 23.5691 28.179 30.0381 25.1787C30.0592 25.1686 30.0827 25.1648 30.1058 25.1676C30.129 25.1704 30.1509 25.1798 30.169 25.1946C30.3693 25.3602 30.579 25.526 30.7903 25.6838C30.8071 25.6964 30.8206 25.7131 30.8295 25.7322C30.8384 25.7513 30.8425 25.7724 30.8414 25.7934C30.8403 25.8145 30.8341 25.835 30.8233 25.8531C30.8124 25.8712 30.7973 25.8864 30.7793 25.8972C29.7824 26.4817 28.7382 26.9806 27.6576 27.3886C27.6409 27.3951 27.6256 27.405 27.6129 27.4177C27.6002 27.4305 27.5904 27.4458 27.5839 27.4626C27.5775 27.4795 27.5748 27.4975 27.5758 27.5155C27.5768 27.5335 27.5816 27.5511 27.5898 27.5671C28.1905 28.7349 28.8763 29.8472 29.6315 30.9019C29.6469 30.9236 29.6687 30.9399 29.6939 30.9485C29.7191 30.9571 29.7464 30.9575 29.7718 30.9497C33.0401 29.9347 36.3543 28.4035 39.7756 25.8814C39.7904 25.8706 39.8026 25.8567 39.8116 25.8408C39.8206 25.8249 39.8261 25.8072 39.8278 25.789C40.6618 17.1276 38.4308 9.60404 33.9136 2.93441C33.9025 2.91274 33.8841 2.89593 33.8616 2.88672ZM13.3667 21.2257C11.3958 21.2257 9.77183 19.4093 9.77183 17.1786C9.77183 14.9481 11.3643 13.1317 13.3668 13.1317C15.3848 13.1317 16.993 14.964 16.9615 17.1788C16.9615 19.4093 15.369 21.2257 13.3667 21.2257ZM26.658 21.2257C24.6871 21.2257 23.0631 19.4093 23.0631 17.1786C23.0631 14.9481 24.6555 13.1317 26.658 13.1317C28.676 13.1317 30.2841 14.964 30.2526 17.1788C30.2526 19.4093 28.676 21.2257 26.658 21.2257Z" fill="white"/>
</svg>
