<svg width="52" height="52" viewBox="0 0 52 52" fill="none" xmlns="http://www.w3.org/2000/svg">
<path d="M18.9487 43.8662C6.12821 47.4331 6.12821 37.9214 1 36.7325M36.8974 51V41.7975C36.9936 40.6636 36.8284 39.5237 36.4129 38.4536C35.9973 37.3835 35.3408 36.4077 34.4872 35.5911C42.5385 34.7588 51 31.9291 51 18.9457C50.9993 15.6257 49.6223 12.433 47.1538 10.0285C48.3227 7.12385 48.2401 3.91329 46.9231 1.06371C46.9231 1.06371 43.8974 0.23144 36.8974 4.58303C31.0205 3.10592 24.8256 3.10592 18.9487 4.58303C11.9487 0.23144 8.92308 1.06371 8.92308 1.06371C7.60609 3.91329 7.52345 7.12385 8.69231 10.0285C6.20545 12.4508 4.82698 15.6724 4.84615 19.017C4.84615 31.9053 13.3077 34.735 21.359 35.6624C20.5154 36.4708 19.8648 37.4349 19.4495 38.492C19.0342 39.549 18.8636 40.6752 18.9487 41.7975V51" stroke="white" stroke-width="2" stroke-linecap="round" stroke-linejoin="round"/>
</svg>
