<svg width="120" height="126" viewBox="0 0 120 126" fill="none" xmlns="http://www.w3.org/2000/svg">
<g clip-path="url(#clip0_289_222)">
<path d="M54.7036 60.375V55.125C54.7036 53.0364 55.4875 51.0334 56.8827 49.5565C58.2779 48.0797 60.1703 47.25 62.1435 47.25C64.1167 47.25 66.009 48.0797 67.4043 49.5565C68.7995 51.0334 69.5834 53.0364 69.5834 55.125V63" stroke="white" stroke-width="2" stroke-linecap="round" stroke-linejoin="round"/>
<path d="M84.4631 63V28.875C84.4631 26.7864 85.2469 24.7834 86.6422 23.3065C88.0374 21.8297 89.9298 21 91.903 21C93.8761 21 95.7685 21.8297 97.1637 23.3065C98.559 24.7834 99.3428 26.7864 99.3428 28.875V84C99.3428 92.3543 96.2075 100.366 90.6265 106.274C85.0455 112.181 77.476 115.5 69.5833 115.5H59.6635H60.6952C55.7667 115.501 50.9151 114.206 46.5762 111.732C42.2372 109.258 38.5467 105.682 35.8361 101.325C35.5107 100.801 35.1867 100.276 34.8639 99.75C33.3164 97.2352 27.8853 87.213 18.5656 69.678C17.6156 67.8905 17.3618 65.7813 17.8583 63.7988C18.3547 61.8163 19.5623 60.1171 21.2242 59.0625C22.9942 57.9383 25.0684 57.4724 27.1173 57.7387C29.1662 58.005 31.0723 58.9884 32.5328 60.5325L39.8238 68.25" stroke="white" stroke-width="2" stroke-linecap="round" stroke-linejoin="round"/>
<path d="M69.5833 55.125C69.5833 53.0364 70.3671 51.0334 71.7623 49.5565C73.1576 48.0797 75.0499 47.25 77.0231 47.25C78.9963 47.25 80.8887 48.0797 82.2839 49.5565C83.6792 51.0334 84.463 53.0364 84.463 55.125V63" stroke="white" stroke-width="2" stroke-linecap="round" stroke-linejoin="round"/>
<path d="M39.824 68.25V23.625C39.824 21.5364 40.6078 19.5334 42.0031 18.0565C43.3983 16.5797 45.2907 15.75 47.2638 15.75C49.237 15.75 51.1294 16.5797 52.5246 18.0565C53.9199 19.5334 54.7037 21.5364 54.7037 23.625V63" stroke="white" stroke-width="2" stroke-linecap="round" stroke-linejoin="round"/>
</g>
<defs>
<clipPath id="clip0_289_222">
<rect width="119.038" height="126" fill="white" transform="translate(0.144531)"/>
</clipPath>
</defs>
</svg>
