<svg width="40" height="41" viewBox="0 0 40 41" fill="none" xmlns="http://www.w3.org/2000/svg">
<g clip-path="url(#clip0_289_184)">
<path d="M39.9999 8V33C39.9999 34.4187 38.9187 35.5 37.5 35.5H35V12.8112L20 23.5862L4.99999 12.8112V35.5H2.5C1.08125 35.5 0 34.4187 0 33V8C0 7.29 0.2675 6.665 0.716249 6.2225C1.165 5.76625 1.79 5.5 2.5 5.5H3.33375L20 17.5837L36.6662 5.5H37.5C38.2099 5.5 38.8349 5.7675 39.2837 6.2225C39.7324 6.665 39.9999 7.29 39.9999 8Z" fill="white"/>
</g>
<defs>
<clipPath id="clip0_289_184">
<rect width="39.9999" height="39.9999" fill="white" transform="translate(0 0.5)"/>
</clipPath>
</defs>
</svg>
