<svg width="50" height="50" viewBox="0 0 50 50" fill="none" xmlns="http://www.w3.org/2000/svg">
<path d="M46.6667 25C46.6667 36.9657 36.9677 46.6667 25 46.6667V50C38.8087 50 50 38.8063 50 25H46.6667ZM25 46.6667C13.0325 46.6667 3.33333 36.9657 3.33333 25H0C0 38.8063 11.1913 50 25 50V46.6667ZM3.33333 25C3.33333 13.0343 13.0325 3.33333 25 3.33333V0C11.1913 0 0 11.1935 0 25H3.33333ZM25 3.33333C36.9677 3.33333 46.6667 13.0343 46.6667 25H50C50 11.1935 38.8087 0 25 0V3.33333ZM12.2063 33.7207C15.4942 32.9192 19.5381 32.5691 23.5139 32.9597C27.5003 33.3513 31.2941 34.4747 34.1863 36.5083L36.1037 33.7817C32.5923 31.3127 28.1859 30.0694 23.8398 29.6423C19.483 29.2143 15.0621 29.5936 11.4169 30.4822L12.2063 33.7207ZM11.0875 26.6412C22.5733 24.6092 30.5811 25.6487 37.2163 30.412L39.1603 27.7041C31.4995 22.2047 22.4394 21.2478 10.5067 23.3589L11.0875 26.6412ZM10.3378 19.4701C14.8478 17.8766 20.3481 17.215 25.7516 17.6575C31.1612 18.1005 36.3473 19.639 40.2953 22.3208L42.1683 19.5634C37.621 16.4747 31.8375 14.8114 26.0237 14.3353C20.2039 13.8587 14.2272 14.5606 9.22737 16.3271L10.3378 19.4701Z" fill="white"/>
</svg>
