<svg width="73" height="74" viewBox="0 0 73 74" fill="none" xmlns="http://www.w3.org/2000/svg">
<path d="M71.9007 30.7142L64.6738 19.7166L68.2704 6.92014C68.4943 6.11749 68.2749 5.25417 67.6922 4.66564C67.1117 4.07482 66.2679 3.85619 65.4748 4.09092L52.9232 7.82132L42.0748 0.385632C41.3919 -0.0815987 40.5167 -0.137704 39.7922 0.247016C39.0631 0.627155 38.5951 1.38278 38.5681 2.2152L38.1788 15.5212L27.8783 23.7217C27.2327 24.2358 26.9142 25.0682 27.0436 25.8915C27.173 26.7147 27.7332 27.4005 28.5072 27.6822L38.1721 31.2088C38.1068 31.2614 38.0382 31.3085 37.9775 31.3703L0.658969 69.3522C-0.219656 70.2465 -0.219656 71.6961 0.658969 72.5903C1.09884 73.038 1.67372 73.2613 2.24972 73.2613C2.82572 73.2613 3.40059 73.038 3.84047 72.5903L41.159 34.6084C41.3042 34.4607 41.4166 34.2935 41.5133 34.1206L45.2956 44.6798C45.4339 45.0644 45.6708 45.4044 45.9818 45.6643C46.2928 45.9243 46.6665 46.0947 47.0641 46.158C47.1788 46.1763 47.2947 46.1843 47.4095 46.1843C47.7531 46.184 48.0922 46.1036 48.4006 45.9494C48.7091 45.7952 48.9788 45.5712 49.1891 45.2946L57.189 34.7629L70.1197 34.2935C70.9398 34.2648 71.6778 33.7839 72.0491 33.0386C72.4192 32.2955 72.3618 31.4036 71.9006 30.7143L71.9007 30.7142ZM55.9777 30.2254C55.3094 30.2483 54.6862 30.5748 54.2767 31.1129L48.1263 39.2069L44.6827 29.5946C44.4543 28.9546 43.9571 28.4542 43.3271 28.224L33.8636 24.7707L41.7824 18.4687C42.3101 18.0484 42.6239 17.413 42.6464 16.7328L42.9457 6.50343L51.2842 12.2193C51.5583 12.4063 51.8694 12.5301 52.1955 12.5819C52.5216 12.6337 52.8549 12.6123 53.172 12.5192L62.8223 9.64988L60.0559 19.4877C59.9658 19.8112 59.9464 20.1508 59.9991 20.4828C60.0518 20.8147 60.1752 21.1308 60.3607 21.409L66.0251 29.8625L55.9777 30.2254Z" fill="white"/>
</svg>
