<svg width="40" height="41" viewBox="0 0 40 41" fill="none" xmlns="http://www.w3.org/2000/svg">
<g clip-path="url(#clip0_289_187)">
<path d="M39.7374 12.2907C39.7374 8.77509 37.1515 5.94697 33.9562 5.94697C29.6281 5.74463 25.214 5.6665 20.7031 5.6665H19.2968C14.7968 5.6665 10.375 5.74463 6.04685 5.94775C2.85936 5.94775 0.273424 8.7915 0.273424 12.3071C0.0781117 15.0876 -0.00470069 17.8688 -1.31975e-05 20.6501C-0.00782569 23.4313 0.0807159 26.2152 0.265611 29.0016C0.265611 32.5173 2.85155 35.3688 6.03904 35.3688C10.5859 35.5797 15.25 35.6735 19.9921 35.6657C24.7421 35.6813 29.3932 35.5823 33.9453 35.3688C37.1406 35.3688 39.7265 32.5173 39.7265 29.0016C39.914 26.2126 39.9999 23.4313 39.9921 20.6423C40.0098 17.861 39.9249 15.0772 39.7374 12.2907ZM16.1718 28.3141V12.9626L27.4999 20.6345L16.1718 28.3141Z" fill="white"/>
</g>
<defs>
<clipPath id="clip0_289_187">
<rect width="39.9999" height="39.9999" fill="white" transform="translate(0 0.666504)"/>
</clipPath>
</defs>
</svg>
